<svg width="20" height="20" viewBox="0 0 20 20" fill="none" xmlns="http://www.w3.org/2000/svg">
<path fill-rule="evenodd" clip-rule="evenodd" d="M15.735 2.29167C16.365 2.29167 16.9675 2.53 17.4125 2.95084C17.8708 3.38334 18.125 3.97167 18.125 4.58334V12.9167C18.125 13.5283 17.8708 14.1167 17.4125 14.5492C16.9578 14.9746 16.3577 15.2104 15.735 15.2083H4.265C3.64226 15.2104 3.04223 14.9746 2.5875 14.5492C2.36353 14.3402 2.18475 14.0875 2.06221 13.8067C1.93967 13.5259 1.87595 13.223 1.875 12.9167V4.58334C1.875 3.97167 2.12917 3.38334 2.5875 2.95084C3.04223 2.52537 3.64226 2.28959 4.265 2.29167H15.735ZM5.83333 10.625C5.83333 10.7908 5.89918 10.9497 6.01639 11.0669C6.1336 11.1842 6.29257 11.25 6.45833 11.25C6.62409 11.25 6.78306 11.1842 6.90027 11.0669C7.01748 10.9497 7.08333 10.7908 7.08333 10.625V9.58334H8.33333V10.625C8.33333 10.7908 8.39918 10.9497 8.51639 11.0669C8.6336 11.1842 8.79257 11.25 8.95833 11.25C9.12409 11.25 9.28306 11.1842 9.40027 11.0669C9.51748 10.9497 9.58333 10.7908 9.58333 10.625V8.125C9.58333 7.62772 9.38579 7.15081 9.03416 6.79918C8.68253 6.44755 8.20561 6.25 7.70833 6.25C7.21105 6.25 6.73414 6.44755 6.38251 6.79918C6.03088 7.15081 5.83333 7.62772 5.83333 8.125V10.625ZM8.33333 8.33334H7.08333V8.125C7.08333 7.95924 7.14918 7.80027 7.26639 7.68306C7.3836 7.56585 7.54257 7.5 7.70833 7.5C7.87409 7.5 8.03306 7.56585 8.15027 7.68306C8.26748 7.80027 8.33333 7.95924 8.33333 8.125V8.33334ZM10.4167 10.625C10.4167 10.97 10.6967 11.25 11.0417 11.25H12.2917C12.7889 11.25 13.2659 11.0525 13.6175 10.7008C13.9691 10.3492 14.1667 9.87228 14.1667 9.375V8.125C14.1667 7.62772 13.9691 7.15081 13.6175 6.79918C13.2659 6.44755 12.7889 6.25 12.2917 6.25H11.0417C10.8759 6.25 10.7169 6.31585 10.5997 6.43306C10.4825 6.55027 10.4167 6.70924 10.4167 6.875V10.625ZM11.6667 10V7.5H12.2917C12.4574 7.5 12.6164 7.56585 12.7336 7.68306C12.8508 7.80027 12.9167 7.95924 12.9167 8.125V9.375C12.9167 9.54076 12.8508 9.69973 12.7336 9.81695C12.6164 9.93416 12.4574 10 12.2917 10H11.6667ZM18.3333 16.4583C18.4991 16.4583 18.6581 16.5242 18.7753 16.6414C18.8925 16.7586 18.9583 16.9176 18.9583 17.0833C18.9583 17.2491 18.8925 17.4081 18.7753 17.5253C18.6581 17.6425 18.4991 17.7083 18.3333 17.7083H1.66667C1.50091 17.7083 1.34193 17.6425 1.22472 17.5253C1.10751 17.4081 1.04167 17.2491 1.04167 17.0833C1.04167 16.9176 1.10751 16.7586 1.22472 16.6414C1.34193 16.5242 1.50091 16.4583 1.66667 16.4583H18.3333Z" fill="#818795"/>
</svg>
