<svg width="20" height="20" viewBox="0 0 20 20" fill="none" xmlns="http://www.w3.org/2000/svg">
<path fill-rule="evenodd" clip-rule="evenodd" d="M15.735 2.29152C16.365 2.29152 16.9675 2.52985 17.4125 2.95068C17.8708 3.38318 18.125 3.97152 18.125 4.58318V12.9165C18.125 13.5282 17.8708 14.1165 17.4125 14.549C16.9578 14.9745 16.3577 15.2103 15.735 15.2082H4.265C3.64226 15.2103 3.04223 14.9745 2.5875 14.549C2.36353 14.34 2.18475 14.0873 2.06221 13.8065C1.93967 13.5258 1.87595 13.2229 1.875 12.9165V4.58318C1.875 3.97152 2.12917 3.38318 2.5875 2.95068C3.04223 2.52522 3.64226 2.28944 4.265 2.29152H15.735ZM5.83333 10.6249C5.83333 10.7906 5.89918 10.9496 6.01639 11.0668C6.1336 11.184 6.29257 11.2499 6.45833 11.2499C6.62409 11.2499 6.78306 11.184 6.90027 11.0668C7.01748 10.9496 7.08333 10.7906 7.08333 10.6249V9.58318H8.33333V10.6249C8.33333 10.7906 8.39918 10.9496 8.51639 11.0668C8.6336 11.184 8.79257 11.2499 8.95833 11.2499C9.12409 11.2499 9.28306 11.184 9.40027 11.0668C9.51748 10.9496 9.58333 10.7906 9.58333 10.6249V8.12485C9.58333 7.62757 9.38579 7.15066 9.03416 6.79903C8.68253 6.4474 8.20561 6.24985 7.70833 6.24985C7.21105 6.24985 6.73414 6.4474 6.38251 6.79903C6.03088 7.15066 5.83333 7.62757 5.83333 8.12485V10.6249ZM8.33333 8.33318H7.08333V8.12485C7.08333 7.95909 7.14918 7.80012 7.26639 7.68291C7.3836 7.5657 7.54257 7.49985 7.70833 7.49985C7.87409 7.49985 8.03306 7.5657 8.15027 7.68291C8.26748 7.80012 8.33333 7.95909 8.33333 8.12485V8.33318ZM10.4167 10.6249C10.4167 10.9699 10.6967 11.2499 11.0417 11.2499H12.2917C12.7889 11.2499 13.2659 11.0523 13.6175 10.7007C13.9691 10.349 14.1667 9.87213 14.1667 9.37485V8.12485C14.1667 7.62757 13.9691 7.15066 13.6175 6.79903C13.2659 6.4474 12.7889 6.24985 12.2917 6.24985H11.0417C10.8759 6.24985 10.7169 6.3157 10.5997 6.43291C10.4825 6.55012 10.4167 6.70909 10.4167 6.87485V10.6249ZM11.6667 9.99985V7.49985H12.2917C12.4574 7.49985 12.6164 7.5657 12.7336 7.68291C12.8508 7.80012 12.9167 7.95909 12.9167 8.12485V9.37485C12.9167 9.54061 12.8508 9.69958 12.7336 9.81679C12.6164 9.934 12.4574 9.99985 12.2917 9.99985H11.6667ZM18.3333 16.4582C18.4991 16.4582 18.6581 16.524 18.7753 16.6412C18.8925 16.7585 18.9583 16.9174 18.9583 17.0832C18.9583 17.2489 18.8925 17.4079 18.7753 17.5251C18.6581 17.6423 18.4991 17.7082 18.3333 17.7082H1.66667C1.50091 17.7082 1.34193 17.6423 1.22472 17.5251C1.10751 17.4079 1.04167 17.2489 1.04167 17.0832C1.04167 16.9174 1.10751 16.7585 1.22472 16.6412C1.34193 16.524 1.50091 16.4582 1.66667 16.4582H18.3333Z" fill="white"/>
</svg>
