<svg width="32" height="32" viewBox="0 0 32 32" fill="none" xmlns="http://www.w3.org/2000/svg">
<rect width="32" height="32" rx="16" fill="#F2F5FA"/>
<path d="M10.6499 12.8525C10.9839 11.7672 11.641 10.8096 12.5334 10.1075C12.6375 10.0252 12.7699 9.98763 12.9017 10.003C13.0334 10.0184 13.1537 10.0855 13.2359 10.1895C13.3182 10.2935 13.3558 10.426 13.3404 10.5577C13.3251 10.6895 13.258 10.8097 13.1539 10.892C12.4199 11.4687 11.8792 12.2555 11.6039 13.1475C11.5725 13.2493 11.5094 13.3384 11.4238 13.4018C11.3381 13.4652 11.2345 13.4996 11.1279 13.5C11.0496 13.5 10.9724 13.4817 10.9025 13.4464C10.8326 13.4112 10.7719 13.36 10.7254 13.297C10.6789 13.234 10.6479 13.1609 10.6347 13.0837C10.6216 13.0065 10.6268 12.9273 10.6499 12.8525ZM20.3939 13.1475C20.4254 13.2496 20.4888 13.3388 20.5747 13.4023C20.6607 13.4657 20.7646 13.4999 20.8714 13.5C20.9498 13.5001 21.0271 13.4818 21.097 13.4466C21.167 13.4114 21.2277 13.3602 21.2743 13.2972C21.3209 13.2342 21.352 13.1611 21.3651 13.0838C21.3782 13.0066 21.3731 12.9274 21.3499 12.8525C21.016 11.7672 20.3589 10.8096 19.4664 10.1075C19.3624 10.0252 19.23 9.98763 19.0982 10.003C18.9665 10.0184 18.8462 10.0855 18.7639 10.1895C18.6817 10.2935 18.6441 10.426 18.6594 10.5577C18.6748 10.6895 18.7419 10.8097 18.8459 10.892C19.5798 11.4696 20.1201 12.2573 20.3944 13.15L20.3939 13.1475ZM21.3439 20.88C21.2762 21.09 21.1432 21.2729 20.9641 21.4018C20.7851 21.5308 20.5696 21.5992 20.3489 21.597H18.2389C18.1262 22.1073 17.8427 22.5638 17.4353 22.891C17.0279 23.2183 16.521 23.3966 15.9984 23.3966C15.4759 23.3966 14.969 23.2183 14.5616 22.891C14.1541 22.5638 13.8706 22.1073 13.7579 21.597H11.6499C11.4303 21.5961 11.2164 21.5263 11.0385 21.3975C10.8606 21.2687 10.7275 21.0874 10.6581 20.879C10.5887 20.6706 10.5863 20.4457 10.6514 20.2359C10.7165 20.0261 10.8457 19.842 11.0209 19.7095L11.9024 19.05V14.5C11.9039 13.5007 12.2703 12.5363 12.9328 11.7881C13.5953 11.04 14.5082 10.5595 15.4999 10.437V9.104C15.4999 8.97139 15.5526 8.84421 15.6464 8.75045C15.7402 8.65668 15.8673 8.604 15.9999 8.604C16.1325 8.604 16.2597 8.65668 16.3535 8.75045C16.4473 8.84421 16.4999 8.97139 16.4999 9.104V10.437C17.4922 10.5589 18.4057 11.0391 19.0687 11.7874C19.7316 12.5356 20.0984 13.5003 20.0999 14.5V19.05L20.9819 19.7115C21.159 19.8422 21.2897 20.026 21.3551 20.2362C21.4205 20.4464 21.4171 20.6719 21.3454 20.88H21.3439ZM17.1999 21.597H14.7999C14.8993 21.8327 15.0659 22.0339 15.279 22.1753C15.4921 22.3168 15.7422 22.3922 15.9979 22.3922C16.2537 22.3922 16.5038 22.3168 16.7169 22.1753C16.93 22.0339 17.0966 21.8327 17.1959 21.597H17.1999ZM20.3799 20.51L19.2999 19.7C19.2378 19.6534 19.1874 19.593 19.1527 19.5236C19.118 19.4542 19.0999 19.3776 19.0999 19.3V14.5C19.1167 14.0828 19.049 13.6664 18.9009 13.276C18.7528 12.8856 18.5273 12.5291 18.238 12.228C17.9488 11.9268 17.6016 11.6872 17.2175 11.5236C16.8333 11.3599 16.42 11.2755 16.0024 11.2755C15.5849 11.2755 15.1716 11.3599 14.7874 11.5236C14.4033 11.6872 14.0561 11.9268 13.7668 12.228C13.4776 12.5291 13.2521 12.8856 13.104 13.276C12.9559 13.6664 12.8882 14.0828 12.9049 14.5V19.3C12.9049 19.3776 12.8869 19.4542 12.8522 19.5236C12.8174 19.593 12.767 19.6534 12.7049 19.7L11.6199 20.5095C11.6125 20.516 11.6072 20.5246 11.6046 20.5341C11.602 20.5436 11.6023 20.5537 11.6055 20.5631C11.6087 20.5725 11.6145 20.5807 11.6223 20.5867C11.6302 20.5927 11.6396 20.5963 11.6494 20.597H20.3499C20.3605 20.5986 20.3713 20.596 20.38 20.5897C20.3887 20.5835 20.3946 20.5741 20.3964 20.5635C20.4011 20.5542 20.402 20.5434 20.3989 20.5334C20.3958 20.5235 20.389 20.5151 20.3799 20.51Z" fill="#0043C5"/>
</svg>
