<svg width="20" height="20" viewBox="0 0 20 20" fill="none" xmlns="http://www.w3.org/2000/svg">
<path d="M18.125 8.75C18.4688 8.75 18.75 8.46875 18.75 8.125V6.25C18.75 5.5625 18.1875 5 17.5 5H2.5C1.8125 5 1.25 5.5625 1.25 6.25V8.125C1.25 8.46875 1.53125 8.75 1.875 8.75C2.5625 8.75 3.125 9.3125 3.125 10C3.125 10.6875 2.5625 11.25 1.875 11.25C1.53125 11.25 1.25 11.5312 1.25 11.875V13.75C1.25 14.4375 1.8125 15 2.5 15H17.5C18.1875 15 18.75 14.4375 18.75 13.75V11.875C18.75 11.5312 18.4688 11.25 18.125 11.25C17.4375 11.25 16.875 10.6875 16.875 10C16.875 9.3125 17.4375 8.75 18.125 8.75ZM8.44375 7.8125C8.7875 7.8125 9.06875 8.09375 9.06875 8.4375C9.06875 8.78125 8.7875 9.0625 8.44375 9.0625C8.1 9.0625 7.81875 8.78125 7.81875 8.4375C7.81875 8.09375 8.09375 7.8125 8.44375 7.8125ZM8.44375 12.1875C8.28125 12.1875 8.125 12.125 8 12.0062C7.94206 11.9484 7.89609 11.8797 7.86473 11.8041C7.83337 11.7285 7.81722 11.6475 7.81722 11.5656C7.81722 11.4838 7.83337 11.4027 7.86473 11.3271C7.89609 11.2515 7.94206 11.1828 8 11.125L11.125 8C11.2419 7.88314 11.4004 7.81749 11.5656 7.81749C11.7309 7.81749 11.8894 7.88314 12.0062 8C12.1231 8.11686 12.1888 8.27536 12.1888 8.44063C12.1888 8.60589 12.1231 8.76439 12.0062 8.88125L8.88125 12.0062C8.75625 12.1312 8.6 12.1875 8.4375 12.1875H8.44375ZM11.5813 12.1875C11.2375 12.1875 10.9563 11.9062 10.9563 11.5625C10.9563 11.2188 11.2313 10.9375 11.5813 10.9375C11.925 10.9375 12.2063 11.2188 12.2063 11.5625C12.2063 11.9062 11.925 12.1875 11.5813 12.1875Z" fill="white"/>
</svg>
