<svg width="20" height="20" viewBox="0 0 20 20" fill="none" xmlns="http://www.w3.org/2000/svg">
<g clip-path="url(#clip0_2031_3791)">
<path d="M0.742187 0.734573C1.21484 0.265823 1.85156 0.00801087 2.51562 0.0119171C3.55859 0.00801087 4.57812 0.00801086 5.54687 0.00801086H7.08594C8.41016 0.0119171 9.50781 1.10957 9.53125 2.46114C9.55859 4.07442 9.55859 5.57442 9.53125 7.03926C9.50391 8.4416 8.42187 9.51192 7.01172 9.52754C6.25 9.53926 5.48437 9.54317 4.73828 9.54317C2.57422 9.5627 0.199218 9.83614 0.0156241 6.96504C0.0234366 6.1252 0.0156241 5.29707 0.0156241 4.46114C0.0664053 3.21114 -0.273438 1.68379 0.742187 0.734573ZM9.53516 14.8283C9.53516 15.6564 9.53125 16.5158 9.53906 17.3596C9.57812 18.7736 8.41797 20.0158 7.00391 19.9924C5.83203 19.965 4.56641 19.9963 3.37891 19.9885C2.44531 20.0314 1.40625 19.9807 0.742187 19.258C0.0976554 18.6604 -0.0429697 17.7189 0.0117178 16.8596C0.00781158 15.5744 0.00781158 14.2463 0.0195303 12.9377C0.0234366 11.8205 0.777343 10.8479 1.85547 10.5627C2.86328 10.3596 3.80469 10.5002 4.9375 10.4572C5.58984 10.4572 6.23828 10.4572 6.89062 10.4611C9.58984 10.6018 9.62109 12.676 9.53516 14.8283ZM18.5977 11.8635C21.5781 14.8088 19.4297 20.0197 15.2305 19.9924C11.0586 20.0158 8.85547 14.8127 11.8633 11.8713C13.6406 10.0158 16.8203 9.99629 18.5977 11.8635ZM10.4687 6.98848C10.4492 5.39864 10.4492 3.93379 10.4687 2.51582C10.4648 1.13692 11.582 0.0119171 12.9609 0.00801086H12.9922C14.4883 -0.00370789 15.9805 -0.00370789 17.543 0.00801086C18.8359 -0.0115204 20 1.16426 19.9844 2.45723C19.9922 3.32832 19.9844 4.18379 19.9844 5.04707C19.9414 6.29707 20.2539 7.84785 19.2539 8.79317C18.2344 9.85957 16.543 9.45723 15.2227 9.53926C14.4727 9.53926 13.7227 9.53535 12.9961 9.52364C11.6055 9.52754 10.4727 8.40645 10.4687 7.01192V6.98848Z" fill="white"/>
</g>
<defs>
<clipPath id="clip0_2031_3791">
<rect width="20" height="20" fill="white"/>
</clipPath>
</defs>
</svg>
