<svg width="20" height="20" viewBox="0 0 20 20" fill="none" xmlns="http://www.w3.org/2000/svg">
<g clip-path="url(#clip0_2031_3797)">
<path d="M0.742187 0.734619C1.21484 0.265869 1.85156 0.00805664 2.51562 0.0119629C3.55859 0.00805664 4.57812 0.00805664 5.54687 0.00805664H7.08594C8.41016 0.0119629 9.50781 1.10962 9.53125 2.46118C9.55859 4.07446 9.55859 5.57446 9.53125 7.03931C9.50391 8.44165 8.42187 9.51196 7.01172 9.52759C6.25 9.53931 5.48437 9.54321 4.73828 9.54321C2.57422 9.56274 0.199218 9.83618 0.0156241 6.96509C0.0234366 6.12524 0.0156241 5.29712 0.0156241 4.46118C0.0664053 3.21118 -0.273438 1.68384 0.742187 0.734619ZM9.53516 14.8284C9.53516 15.6565 9.53125 16.5159 9.53906 17.3596C9.57812 18.7737 8.41797 20.0159 7.00391 19.9924C5.83203 19.9651 4.56641 19.9963 3.37891 19.9885C2.44531 20.0315 1.40625 19.9807 0.742187 19.2581C0.0976554 18.6604 -0.0429697 17.719 0.0117178 16.8596C0.00781158 15.5745 0.00781158 14.2463 0.0195303 12.9377C0.0234366 11.8206 0.777343 10.8479 1.85547 10.5627C2.86328 10.3596 3.80469 10.5002 4.9375 10.4573C5.58984 10.4573 6.23828 10.4573 6.89062 10.4612C9.58984 10.6018 9.62109 12.676 9.53516 14.8284ZM18.5977 11.8635C21.5781 14.8088 19.4297 20.0198 15.2305 19.9924C11.0586 20.0159 8.85547 14.8127 11.8633 11.8713C13.6406 10.0159 16.8203 9.99634 18.5977 11.8635ZM10.4687 6.98852C10.4492 5.39868 10.4492 3.93384 10.4687 2.51587C10.4648 1.13696 11.582 0.0119629 12.9609 0.00805664H12.9922C14.4883 -0.00366211 15.9805 -0.00366211 17.543 0.00805664C18.8359 -0.0114746 20 1.16431 19.9844 2.45728C19.9922 3.32837 19.9844 4.18384 19.9844 5.04712C19.9414 6.29712 20.2539 7.8479 19.2539 8.79321C18.2344 9.85962 16.543 9.45728 15.2227 9.53931C14.4727 9.53931 13.7227 9.5354 12.9961 9.52368C11.6055 9.52759 10.4727 8.40649 10.4687 7.01196V6.98852Z" fill="#818795"/>
</g>
<defs>
<clipPath id="clip0_2031_3797">
<rect width="20" height="20" fill="white"/>
</clipPath>
</defs>
</svg>
