<svg width="20" height="20" viewBox="0 0 20 20" fill="none" xmlns="http://www.w3.org/2000/svg">
<path d="M16.3333 3.66666C14.811 2.11218 12.7746 1.16545 10.6049 1.00353C8.43524 0.841612 6.28086 1.47559 4.5447 2.7869C2.80854 4.09821 1.60951 5.99705 1.17183 8.1283C0.734152 10.2595 1.08781 12.4773 2.16667 14.3667L1.58333 16.6667C1.52498 16.9082 1.52966 17.1606 1.59692 17.3998C1.66419 17.639 1.79178 17.8568 1.96747 18.0325C2.14315 18.2082 2.36103 18.3358 2.60021 18.4031C2.83938 18.4703 3.09183 18.475 3.33333 18.4167L5.6 17.8167C6.94482 18.5674 8.45981 18.9605 10 18.9583C10.6418 18.9591 11.2818 18.8892 11.9083 18.75C13.4805 18.4092 14.9318 17.651 16.1095 16.5551C17.2872 15.4593 18.1477 14.0662 18.6006 12.5226C19.0535 10.9789 19.0819 9.34174 18.6829 7.7833C18.2839 6.22486 17.4723 4.80277 16.3333 3.66666ZM10.625 15C10.625 15.1657 10.5592 15.3247 10.4419 15.4419C10.3247 15.5591 10.1658 15.625 10 15.625C9.83424 15.625 9.67527 15.5591 9.55806 15.4419C9.44085 15.3247 9.375 15.1657 9.375 15V9.16666C9.375 9.0009 9.44085 8.84192 9.55806 8.72471C9.67527 8.6075 9.83424 8.54166 10 8.54166C10.1658 8.54166 10.3247 8.6075 10.4419 8.72471C10.5592 8.84192 10.625 9.0009 10.625 9.16666V15ZM10 6.87499C9.79398 6.87499 9.59258 6.8139 9.42128 6.69944C9.24998 6.58498 9.11647 6.42229 9.03762 6.23195C8.95878 6.04161 8.93815 5.83217 8.97835 5.6301C9.01854 5.42804 9.11775 5.24243 9.26343 5.09675C9.40911 4.95107 9.59472 4.85186 9.79678 4.81167C9.99884 4.77148 10.2083 4.79211 10.3986 4.87095C10.589 4.94979 10.7517 5.0833 10.8661 5.2546C10.9806 5.42591 11.0417 5.6273 11.0417 5.83332C11.0417 6.10959 10.9319 6.37454 10.7366 6.56989C10.5412 6.76524 10.2763 6.87499 10 6.87499Z" fill="#818795"/>
</svg>
