<svg width="20" height="20" viewBox="0 0 20 20" fill="none" xmlns="http://www.w3.org/2000/svg">
<path d="M16.3333 3.66647C14.811 2.11199 12.7746 1.16527 10.6049 1.00335C8.43524 0.841429 6.28086 1.47541 4.5447 2.78672C2.80854 4.09803 1.60951 5.99687 1.17183 8.12812C0.734152 10.2594 1.08781 12.4771 2.16667 14.3665L1.58333 16.6665C1.52498 16.908 1.52966 17.1604 1.59692 17.3996C1.66419 17.6388 1.79178 17.8567 1.96747 18.0323C2.14315 18.208 2.36103 18.3356 2.60021 18.4029C2.83938 18.4701 3.09183 18.4748 3.33333 18.4165L5.6 17.8165C6.94482 18.5673 8.45981 18.9603 10 18.9581C10.6418 18.9589 11.2818 18.889 11.9083 18.7498C13.4805 18.4091 14.9318 17.6508 16.1095 16.555C17.2872 15.4591 18.1477 14.066 18.6006 12.5224C19.0535 10.9787 19.0819 9.34156 18.6829 7.78312C18.2839 6.22468 17.4723 4.80259 16.3333 3.66647ZM10.625 14.9998C10.625 15.1656 10.5592 15.3245 10.4419 15.4417C10.3247 15.559 10.1658 15.6248 10 15.6248C9.83424 15.6248 9.67527 15.559 9.55806 15.4417C9.44085 15.3245 9.375 15.1656 9.375 14.9998V9.16647C9.375 9.00071 9.44085 8.84174 9.55806 8.72453C9.67527 8.60732 9.83424 8.54147 10 8.54147C10.1658 8.54147 10.3247 8.60732 10.4419 8.72453C10.5592 8.84174 10.625 9.00071 10.625 9.16647V14.9998ZM10 6.87481C9.79398 6.87481 9.59258 6.81371 9.42128 6.69925C9.24998 6.58479 9.11647 6.42211 9.03762 6.23177C8.95878 6.04143 8.93815 5.83198 8.97835 5.62992C9.01854 5.42786 9.11775 5.24225 9.26343 5.09657C9.40911 4.95089 9.59472 4.85168 9.79678 4.81149C9.99884 4.7713 10.2083 4.79192 10.3986 4.87076C10.589 4.94961 10.7517 5.08312 10.8661 5.25442C10.9806 5.42572 11.0417 5.62712 11.0417 5.83314C11.0417 6.10941 10.9319 6.37436 10.7366 6.56971C10.5412 6.76506 10.2763 6.87481 10 6.87481Z" fill="white"/>
</svg>
