<svg width="20" height="20" viewBox="0 0 20 20" fill="none" xmlns="http://www.w3.org/2000/svg">
<path d="M15.441 10.5801C15.6703 10.5262 15.7598 10.2473 15.6043 10.0703L12.5461 6.58203C12.4288 6.44822 12.2842 6.34099 12.1222 6.2675C11.9601 6.19401 11.7842 6.15595 11.6062 6.15586H11.6055C11.2453 6.15625 10.9023 6.31172 10.6652 6.5832L6.51367 11.3316L4.58867 9.13594C4.47135 9.00213 4.32682 8.8949 4.16475 8.82141C4.00268 8.74792 3.82679 8.70985 3.64883 8.70977H3.64805C3.2875 8.71016 2.94492 8.86563 2.70781 9.13711L0.625 11.5191V3.98438C0.625 3.07812 1.35938 2.34375 2.26562 2.34375H15.2344C16.1406 2.34375 16.875 3.07812 16.875 3.98438V10.227C16.875 10.377 16.9828 10.5055 17.1309 10.5312L17.1371 10.5324C17.3266 10.5656 17.5 10.4195 17.5 10.2273V3.98438C17.5 2.7332 16.4855 1.71875 15.2344 1.71875H2.26562C1.01445 1.71875 0 2.7332 0 3.98438V12.7344C0 13.9855 1.01445 15 2.26562 15H11.8781C12.0484 15 12.1875 14.8609 12.1875 14.6906V14.6875C12.1875 12.6934 13.5785 11.0176 15.441 10.5801Z" fill="#B7B7B7"/>
<path d="M6.79064 6.65419C7.61666 6.45832 8.12749 5.62992 7.93162 4.8039C7.73575 3.97789 6.90735 3.46705 6.08133 3.66292C5.25531 3.85879 4.74448 4.6872 4.94035 5.51321C5.13622 6.33923 5.96462 6.85006 6.79064 6.65419Z" fill="#B7B7B7"/>
<path d="M16.4062 11.0938C14.4246 11.0938 12.8125 12.7059 12.8125 14.6875C12.8125 16.6691 14.4246 18.2812 16.4062 18.2812C18.3879 18.2812 20 16.6691 20 14.6875C20 12.7059 18.3879 11.0938 16.4062 11.0938ZM15.3016 14.1148L16.1371 13.2789C16.1914 13.1867 16.2914 13.1246 16.4062 13.1246C16.5211 13.1246 16.6211 13.1867 16.6754 13.2789L17.5109 14.1148C17.6328 14.2367 17.6328 14.4348 17.5109 14.5566C17.3887 14.6785 17.191 14.6785 17.0691 14.5566L16.7188 14.2062V15.9375C16.7188 16.1102 16.5789 16.25 16.4062 16.25C16.2336 16.25 16.0938 16.1102 16.0938 15.9375V14.2066L15.7434 14.557C15.6215 14.6789 15.4234 14.6789 15.3016 14.557C15.2725 14.528 15.2494 14.4936 15.2337 14.4556C15.218 14.4177 15.2099 14.377 15.2099 14.3359C15.2099 14.2949 15.218 14.2542 15.2337 14.2163C15.2494 14.1783 15.2725 14.1439 15.3016 14.1148Z" fill="#B7B7B7"/>
</svg>
