<svg width="32" height="32" viewBox="0 0 32 32" fill="none" xmlns="http://www.w3.org/2000/svg">
<mask id="mask0_1958_91" style="mask-type:alpha" maskUnits="userSpaceOnUse" x="0" y="0" width="32" height="32">
<rect width="32" height="32" fill="#D9D9D9"/>
</mask>
<g mask="url(#mask0_1958_91)">
<path d="M7.07733 27.3334C6.40377 27.3334 5.83366 27.1001 5.36699 26.6334C4.90033 26.1667 4.66699 25.5966 4.66699 24.9231V7.07708C4.66699 6.40353 4.90033 5.83341 5.36699 5.36675C5.83366 4.90008 6.40377 4.66675 7.07733 4.66675H24.9233C25.5969 4.66675 26.167 4.90008 26.6337 5.36675C27.1003 5.83341 27.3337 6.40353 27.3337 7.07708V24.9231C27.3337 25.5966 27.1003 26.1667 26.6337 26.6334C26.167 27.1001 25.5969 27.3334 24.9233 27.3334H7.07733ZM7.07733 25.3334H24.9233C25.026 25.3334 25.12 25.2906 25.2053 25.2051C25.2909 25.1197 25.3337 25.0257 25.3337 24.9231V7.07708C25.3337 6.97441 25.2909 6.88041 25.2053 6.79508C25.12 6.70952 25.026 6.66675 24.9233 6.66675H7.07733C6.97466 6.66675 6.88066 6.70952 6.79533 6.79508C6.70977 6.88041 6.66699 6.97441 6.66699 7.07708V24.9231C6.66699 25.0257 6.70977 25.1197 6.79533 25.2051C6.88066 25.2906 6.97466 25.3334 7.07733 25.3334ZM9.00033 22.3334H23.1027L18.7183 16.4874L14.9747 21.3591L12.308 17.9487L9.00033 22.3334Z" fill="#1C1B1F"/>
</g>
</svg>
