<svg width="20" height="20" viewBox="0 0 20 20" fill="none" xmlns="http://www.w3.org/2000/svg">
<g clip-path="url(#clip0_2331_848)">
<path d="M19.4786 8.65158L17.3606 6.53361C17.1876 6.36533 16.9553 6.27194 16.7139 6.27364C16.4725 6.27534 16.2415 6.372 16.0709 6.5427C15.9002 6.7134 15.8036 6.94442 15.802 7.18579C15.8004 7.42715 15.8939 7.65945 16.0622 7.83244L17.2012 8.9715H12.7989C12.6761 8.96792 12.5538 8.98901 12.4393 9.03354C12.3248 9.07806 12.2204 9.1451 12.1323 9.23069C12.0441 9.31629 11.9741 9.4187 11.9263 9.53185C11.8784 9.64501 11.8538 9.76662 11.8538 9.88947C11.8538 10.0123 11.8784 10.1339 11.9263 10.2471C11.9741 10.3602 12.0441 10.4627 12.1323 10.5483C12.2204 10.6338 12.3248 10.7009 12.4393 10.7454C12.5538 10.7899 12.6761 10.811 12.7989 10.8074H17.2423L16.1032 11.9469C16.0179 12.0322 15.9503 12.1334 15.9042 12.2448C15.858 12.3562 15.8343 12.4755 15.8343 12.5961C15.8343 12.7167 15.858 12.8361 15.9042 12.9475C15.9503 13.0589 16.0179 13.1601 16.1032 13.2453C16.2754 13.4175 16.5089 13.5142 16.7524 13.5142C16.873 13.5142 16.9924 13.4905 17.1038 13.4444C17.2152 13.3982 17.3164 13.3306 17.4016 13.2453L19.4786 11.1684C19.6439 11.0031 19.7751 10.8068 19.8645 10.5909C19.954 10.3749 20 10.1434 20 9.90959C20 9.67581 19.954 9.44431 19.8645 9.22833C19.7751 9.01234 19.6439 8.8161 19.4786 8.6508V8.65158Z" fill="white"/>
<path d="M14.4063 11.9844C14.1727 11.9884 13.9488 12.0786 13.7777 12.2378C13.6067 12.397 13.5005 12.6138 13.4797 12.8465C13.4457 13.2938 13.4118 13.4442 13.3696 13.7774C13.3083 14.2235 13.1025 14.6372 12.7836 14.9551C12.4652 15.2782 12.0503 15.4891 11.6016 15.5559L11.575 15.5594C11.3016 15.5984 11.0477 15.6328 10.7832 15.6641C10.8348 14.6375 10.8676 13.4508 10.8758 12.2731C10.8907 10.3254 10.8368 8.31603 10.7301 7.01915C10.6503 6.1123 10.381 5.23228 9.93989 4.43595C9.50356 3.65157 8.93637 3.03517 8.34184 2.709L8.32348 2.69923C7.80512 2.41564 7.36606 2.1754 6.60824 1.85587C6.9309 1.84532 7.24496 1.83868 7.66293 1.83868C9.7227 1.84689 10.4516 1.97072 11.4645 2.12345L11.4895 2.12736C11.9357 2.20345 12.3456 2.42107 12.6586 2.74806C12.9766 3.0722 13.1841 3.48848 13.2516 3.93751C13.3598 4.72228 13.4469 5.6172 13.4993 6.909C13.5184 7.39571 13.9289 7.79298 14.4282 7.8047C14.9414 7.81642 15.3481 7.42618 15.3246 6.93712C15.2645 5.66681 15.1649 4.72618 15.0348 3.87697C14.9071 3.04611 14.4832 2.23243 13.859 1.58243C13.2348 0.932434 12.4407 0.481262 11.6133 0.33634L11.5879 0.332043C10.5778 0.164075 9.78324 0.0136841 7.66606 0.00274658C5.54926 0.0152466 4.80473 0.163293 3.79301 0.330481L3.76762 0.335168C2.94028 0.4797 2.14418 0.932043 1.51918 1.58087C0.894182 2.2297 0.471135 3.04454 0.343401 3.8754C0.153947 5.09845 0.016838 7.01329 0.00238489 8.884C-0.0120682 10.7547 0.085588 12.6672 0.25551 13.8863C0.331197 14.4057 0.511818 14.9042 0.786369 15.3516C0.862541 15.5078 0.944572 15.6641 1.03246 15.8133C1.48832 16.591 2.07387 17.2219 2.67699 17.5758L2.69535 17.5867C3.43051 18.0164 4.01332 18.3637 5.53246 19.0125C7.04731 19.6531 7.60278 19.782 8.31098 19.95L8.32856 19.9543C8.90746 20.0891 9.45395 19.9031 9.87739 19.4402C10.2875 18.9918 10.5645 18.3043 10.6547 17.5031C11.0262 17.459 11.3579 17.409 11.7168 17.3531L11.7426 17.3488C12.586 17.2172 13.3938 16.7817 14.0204 16.1477C14.6469 15.5137 15.0625 14.7106 15.177 13.882C15.2262 13.5234 15.2645 13.3473 15.3028 12.8867C15.3446 12.3856 14.9329 11.9738 14.4063 11.9844Z" fill="white"/>
</g>
<defs>
<clipPath id="clip0_2331_848">
<rect width="20" height="20" fill="white"/>
</clipPath>
</defs>
</svg>
