<svg width="20" height="20" viewBox="0 0 20 20" fill="none" xmlns="http://www.w3.org/2000/svg">
<g clip-path="url(#clip0_2331_799)">
<path d="M19.4785 8.65158L17.3605 6.53361C17.1875 6.36533 16.9552 6.27194 16.7138 6.27364C16.4724 6.27534 16.2415 6.372 16.0708 6.5427C15.9002 6.7134 15.8036 6.94442 15.8019 7.18579C15.8003 7.42715 15.8938 7.65945 16.0621 7.83244L17.2012 8.9715H12.7988C12.676 8.96792 12.5538 8.98901 12.4392 9.03354C12.3247 9.07806 12.2203 9.1451 12.1322 9.23069C12.0441 9.31629 11.974 9.4187 11.9262 9.53185C11.8783 9.64501 11.8537 9.76662 11.8537 9.88947C11.8537 10.0123 11.8783 10.1339 11.9262 10.2471C11.974 10.3602 12.0441 10.4627 12.1322 10.5483C12.2203 10.6338 12.3247 10.7009 12.4392 10.7454C12.5538 10.7899 12.676 10.811 12.7988 10.8074H17.2422L16.1031 11.9469C16.0179 12.0322 15.9502 12.1334 15.9041 12.2448C15.858 12.3562 15.8342 12.4755 15.8342 12.5961C15.8342 12.7167 15.858 12.8361 15.9041 12.9475C15.9502 13.0589 16.0179 13.1601 16.1031 13.2453C16.2753 13.4175 16.5088 13.5142 16.7523 13.5142C16.8729 13.5142 16.9923 13.4905 17.1037 13.4444C17.2151 13.3982 17.3163 13.3306 17.4016 13.2453L19.4785 11.1684C19.6438 11.0031 19.775 10.8068 19.8645 10.5909C19.9539 10.3749 20 10.1434 20 9.90959C20 9.67581 19.9539 9.44431 19.8645 9.22833C19.775 9.01234 19.6438 8.8161 19.4785 8.6508V8.65158Z" fill="#6D7382"/>
<path d="M14.4062 11.9844C14.1726 11.9884 13.9487 12.0786 13.7777 12.2378C13.6066 12.397 13.5005 12.6138 13.4797 12.8465C13.4457 13.2938 13.4117 13.4442 13.3695 13.7774C13.3083 14.2235 13.1025 14.6372 12.7836 14.9551C12.4652 15.2782 12.0503 15.4891 11.6016 15.5559L11.575 15.5594C11.3016 15.5984 11.0477 15.6328 10.7832 15.6641C10.8348 14.6375 10.8676 13.4508 10.8758 12.2731C10.8906 10.3254 10.8367 8.31603 10.7301 7.01915C10.6502 6.1123 10.381 5.23228 9.93984 4.43595C9.50352 3.65157 8.93633 3.03517 8.3418 2.709L8.32344 2.69923C7.80508 2.41564 7.36602 2.1754 6.6082 1.85587C6.93086 1.84532 7.24492 1.83868 7.66289 1.83868C9.72266 1.84689 10.4516 1.97072 11.4645 2.12345L11.4895 2.12736C11.9357 2.20345 12.3456 2.42107 12.6586 2.74806C12.9766 3.0722 13.1841 3.48848 13.2516 3.93751C13.3598 4.72228 13.4469 5.6172 13.4992 6.909C13.5184 7.39571 13.9289 7.79298 14.4281 7.8047C14.9414 7.81642 15.348 7.42618 15.3246 6.93712C15.2645 5.66681 15.1648 4.72618 15.0348 3.87697C14.907 3.04611 14.4832 2.23243 13.859 1.58243C13.2348 0.932434 12.4406 0.481262 11.6133 0.33634L11.5879 0.332043C10.5777 0.164075 9.7832 0.0136841 7.66602 0.00274658C5.54922 0.0152466 4.80469 0.163293 3.79297 0.330481L3.76758 0.335168C2.94023 0.4797 2.14414 0.932043 1.51914 1.58087C0.894141 2.2297 0.471094 3.04454 0.34336 3.8754C0.153906 5.09845 0.016797 7.01329 0.00234388 8.884C-0.0121092 10.7547 0.085547 12.6672 0.255469 13.8863C0.331156 14.4057 0.511777 14.9042 0.786328 15.3516C0.8625 15.5078 0.944531 15.6641 1.03242 15.8133C1.48828 16.591 2.07383 17.2219 2.67695 17.5758L2.69531 17.5867C3.43047 18.0164 4.01328 18.3637 5.53242 19.0125C7.04727 19.6531 7.60273 19.782 8.31094 19.95L8.32852 19.9543C8.90742 20.0891 9.45391 19.9031 9.87734 19.4402C10.2875 18.9918 10.5645 18.3043 10.6547 17.5031C11.0262 17.459 11.3578 17.409 11.7168 17.3531L11.7426 17.3488C12.5859 17.2172 13.3938 16.7817 14.0203 16.1477C14.6469 15.5137 15.0625 14.7106 15.177 13.882C15.2262 13.5234 15.2645 13.3473 15.3027 12.8867C15.3445 12.3856 14.9328 11.9738 14.4062 11.9844Z" fill="#6D7382"/>
</g>
<defs>
<clipPath id="clip0_2331_799">
<rect width="20" height="20" fill="white"/>
</clipPath>
</defs>
</svg>
