<svg width="20" height="20" viewBox="0 0 20 20" fill="none" xmlns="http://www.w3.org/2000/svg">
<path d="M13.3964 0H6.63982C5.49114 0 4.51514 0.936609 4.51514 2.08497V17.9174C4.51514 19.0658 5.47049 20 6.61917 20L13.3869 19.9927C14.5354 19.9927 15.475 19.0583 15.475 17.9098L15.4849 2.08386C15.4847 0.931367 14.5497 0 13.3964 0ZM9.04203 1.25003H11.0023C11.1745 1.25003 11.3148 1.38982 11.3148 1.5625C11.3148 1.73517 11.1745 1.87497 11.0023 1.87497H9.04203C9.00099 1.87498 8.96035 1.86691 8.92243 1.85121C8.88451 1.83551 8.85006 1.8125 8.82104 1.78348C8.79203 1.75446 8.76901 1.72001 8.75331 1.68209C8.73761 1.64417 8.72954 1.60354 8.72956 1.5625C8.72954 1.52146 8.73761 1.48082 8.75331 1.4429C8.76901 1.40499 8.79203 1.37053 8.82104 1.34151C8.85006 1.3125 8.88451 1.28948 8.92243 1.27378C8.96035 1.25809 9.00099 1.25001 9.04203 1.25003ZM7.86412 1.34947C7.97992 1.23383 8.19072 1.23224 8.30637 1.34947C8.3651 1.40844 8.39826 1.48816 8.39866 1.57139C8.39866 1.65273 8.36435 1.73374 8.30637 1.79173C8.24871 1.84971 8.16721 1.88386 8.08604 1.88386C8.00327 1.88386 7.92369 1.84971 7.86412 1.79173C7.80645 1.7339 7.77357 1.65273 7.77357 1.57139C7.77341 1.48847 7.80645 1.4073 7.86412 1.34947ZM9.9591 19.3806C9.44345 19.3806 9.02408 18.9609 9.02408 18.4454C9.02408 17.9298 9.44345 17.5103 9.9591 17.5103C10.4747 17.5103 10.8941 17.9298 10.8941 18.4454C10.8941 18.9609 10.4746 19.3806 9.9591 19.3806ZM14.5149 16.8747H5.60885V2.96884H14.5149V16.8747Z" fill="black"/>
</svg>
