<svg width="20" height="20" viewBox="0 0 20 20" fill="none" xmlns="http://www.w3.org/2000/svg">
<path d="M17.9192 16.4927L17.0262 5.2384C16.9707 4.51328 16.3573 3.94551 15.6302 3.94551H13.866V6.55945C13.866 6.88316 13.6039 7.1452 13.2802 7.1452C12.9569 7.1452 12.6945 6.88316 12.6945 6.55945V3.94551H7.30578V6.55945C7.30578 6.88316 7.04336 7.1452 6.72004 7.1452C6.39633 7.1452 6.1343 6.88316 6.1343 6.55945V3.94551H4.37008C3.64301 3.94551 3.02953 4.51328 2.9741 5.23684L2.08066 16.4942C2.01156 17.3959 2.32434 18.2932 2.93855 18.9562C3.55281 19.6193 4.42359 20 5.32758 20H14.6727C15.5767 20 16.4475 19.6193 17.0618 18.9562C17.676 18.2932 17.9887 17.3958 17.9192 16.4927ZM12.6391 10.7614L9.60965 13.7909C9.55531 13.8454 9.49074 13.8886 9.41964 13.9181C9.34854 13.9476 9.27232 13.9627 9.19535 13.9627C9.11838 13.9627 9.04216 13.9476 8.97106 13.9181C8.89996 13.8886 8.83539 13.8454 8.78105 13.7909L7.36125 12.3711C7.13242 12.1422 7.13242 11.7716 7.36125 11.5428C7.59008 11.314 7.96105 11.314 8.18949 11.5428L9.19539 12.5483L11.8109 9.93285C12.0393 9.70441 12.4103 9.70441 12.6391 9.93285C12.8679 10.1617 12.8679 10.5326 12.6391 10.7614ZM10.0002 0C7.86848 0 6.13434 1.73453 6.13434 3.86621V3.94547H7.30582V3.86621C7.30582 2.38039 8.51437 1.17145 10.0002 1.17145C11.486 1.17145 12.6946 2.38039 12.6946 3.86621V3.94547H13.866V3.86621C13.866 1.73453 12.1318 0 10.0002 0Z" fill="#818795"/>
</svg>
