<svg width="32" height="32" viewBox="0 0 32 32" fill="none" xmlns="http://www.w3.org/2000/svg">
<mask id="mask0_2564_219" style="mask-type:alpha" maskUnits="userSpaceOnUse" x="0" y="0" width="32" height="32">
<rect width="32" height="32" fill="#D9D9D9"/>
</mask>
<g mask="url(#mask0_2564_219)">
<path d="M7.07708 27.3334C6.40353 27.3334 5.83341 27.1001 5.36675 26.6334C4.90008 26.1667 4.66675 25.5966 4.66675 24.9231V7.07708C4.66675 6.40353 4.90008 5.83341 5.36675 5.36675C5.83341 4.90008 6.40353 4.66675 7.07708 4.66675H24.9231C25.5966 4.66675 26.1667 4.90008 26.6334 5.36675C27.1001 5.83341 27.3334 6.40353 27.3334 7.07708V24.9231C27.3334 25.5966 27.1001 26.1667 26.6334 26.6334C26.1667 27.1001 25.5966 27.3334 24.9231 27.3334H7.07708ZM7.07708 25.3334H24.9231C25.0257 25.3334 25.1197 25.2906 25.2051 25.2051C25.2906 25.1197 25.3334 25.0257 25.3334 24.9231V7.07708C25.3334 6.97441 25.2906 6.88041 25.2051 6.79508C25.1197 6.70952 25.0257 6.66675 24.9231 6.66675H7.07708C6.97441 6.66675 6.88041 6.70952 6.79508 6.79508C6.70953 6.88041 6.66675 6.97441 6.66675 7.07708V24.9231C6.66675 25.0257 6.70953 25.1197 6.79508 25.2051C6.88041 25.2906 6.97441 25.3334 7.07708 25.3334ZM9.00008 22.3334H23.1024L18.7181 16.4874L14.9744 21.3591L12.3077 17.9487L9.00008 22.3334Z" fill="#1C1B1F"/>
</g>
</svg>
