<svg width="20" height="20" viewBox="0 0 20 20" fill="none" xmlns="http://www.w3.org/2000/svg">
<g clip-path="url(#clip0_2015_1434)">
<path d="M5.08244 5.31866L13.8851 1.54475L10.2402 0.0474167C10.0863 -0.0158056 9.91366 -0.0158056 9.75973 0.0474167L1.00541 3.64378L5.08244 5.31866ZM15.5234 2.21777L6.71804 5.99057L9.99998 7.33885L18.9946 3.64378L15.5234 2.21777ZM9.36774 8.44614L5.8056 6.98278V9.75349C5.8056 10.1026 5.52251 10.3857 5.17336 10.3857C4.82421 10.3857 4.54112 10.1026 4.54112 9.75349V6.46332L0.437863 4.77766V15.9077C0.437862 16.0331 0.475126 16.1556 0.544923 16.2597C0.614719 16.3639 0.713895 16.4449 0.829851 16.4925L9.36774 20V8.44614ZM10.6322 8.44614V20L19.1701 16.4925C19.2861 16.4449 19.3852 16.3639 19.455 16.2597C19.5248 16.1556 19.5621 16.0331 19.5621 15.9077V4.77766L10.6322 8.44614Z" fill="#818795"/>
</g>
<defs>
<clipPath id="clip0_2015_1434">
<rect width="20" height="20" fill="white"/>
</clipPath>
</defs>
</svg>
