<svg width="20" height="20" viewBox="0 0 20 20" fill="none" xmlns="http://www.w3.org/2000/svg">
<path d="M3.39823 18.8372C3.39552 18.7759 3.39135 18.7147 3.38573 18.6536L3.36698 18.4656L3.17901 18.487C3.11918 18.4992 3.05745 18.4985 2.99791 18.485C2.93837 18.4714 2.8824 18.4454 2.8337 18.4086C2.80373 18.3768 2.78106 18.3389 2.7673 18.2974C2.75353 18.2559 2.749 18.212 2.75401 18.1686C2.74876 18.0794 2.77765 17.9915 2.83481 17.9228C2.89197 17.854 2.97313 17.8097 3.06182 17.7986H3.41057V0.780452H3.22417C2.87546 0.780077 2.54084 0.918006 2.29368 1.16399C2.04653 1.40998 1.90701 1.74394 1.90573 2.09264C1.89969 4.71837 1.89568 7.3441 1.8937 9.96983C1.89078 12.591 1.88677 15.2121 1.88167 17.8331C1.85513 18.027 1.87447 18.2245 1.93814 18.4095C2.0018 18.5946 2.10801 18.7622 2.24823 18.8987C2.4774 19.1065 2.77607 19.221 3.08542 19.2195C3.14416 19.22 3.20281 19.2149 3.26057 19.2042L3.42729 19.1711L3.40948 19.002C3.40385 18.9473 3.40104 18.8926 3.39823 18.8372ZM18.1279 18.2025C18.1273 18.1138 18.0926 18.0288 18.031 17.9649C17.9695 17.9011 17.8857 17.8634 17.7971 17.8595C17.7524 17.8611 17.7084 17.8716 17.6678 17.8904C17.6271 17.9092 17.5906 17.9359 17.5604 17.969C17.5302 18.002 17.5068 18.0407 17.4917 18.0829C17.4766 18.1251 17.4701 18.1698 17.4724 18.2145V18.5037H3.97667V19.2137H18.1282L18.1279 18.2025ZM18.074 17.3233V1.15936C18.0746 1.10943 18.0651 1.05989 18.0463 1.01366C18.0274 0.967421 17.9995 0.925416 17.9642 0.890108C17.9289 0.8548 17.8869 0.826899 17.8407 0.808042C17.7944 0.789185 17.7449 0.779752 17.6949 0.780296H3.97667V17.7081H17.7009C17.8014 17.7064 17.8971 17.6649 17.967 17.5927C18.037 17.5205 18.0754 17.4236 18.074 17.3231V17.3233ZM10.6217 6.74139C10.6205 6.76402 10.6165 6.7864 10.6095 6.80795C10.576 7.13033 10.4468 7.4353 10.2384 7.68359C10.0301 7.93188 9.75223 8.11211 9.44057 8.20108C9.63432 9.21248 9.76151 10.1151 9.76151 12.023C9.76151 15.118 9.42838 16.5317 9.0226 16.5317C8.61682 16.5317 8.2837 15.118 8.2837 12.023C8.2837 10.1211 8.40479 9.22451 8.5987 8.21311C8.27674 8.13088 7.98761 7.95223 7.77001 7.7011C7.55241 7.44996 7.41675 7.13833 7.3812 6.80795C7.37428 6.78639 7.37024 6.76401 7.36917 6.74139V3.7492C7.36917 3.67693 7.39788 3.60762 7.44898 3.55652C7.50008 3.50541 7.5694 3.4767 7.64167 3.4767C7.71394 3.4767 7.78325 3.50541 7.83435 3.55652C7.88546 3.60762 7.91417 3.67693 7.91417 3.7492V6.63233H8.71979V3.7492C8.71979 3.67691 8.74851 3.60758 8.79963 3.55646C8.85075 3.50534 8.92008 3.47662 8.99237 3.47662C9.06466 3.47662 9.13399 3.50534 9.18511 3.55646C9.23623 3.60758 9.26495 3.67691 9.26495 3.7492V6.62623H10.0704V3.74326C10.0703 3.70741 10.0772 3.67188 10.0908 3.63873C10.1045 3.60557 10.1246 3.57545 10.1499 3.5501C10.1753 3.52475 10.2054 3.50467 10.2385 3.49103C10.2717 3.47738 10.3072 3.47044 10.3431 3.47061C10.4167 3.47142 10.4871 3.50103 10.5392 3.5531C10.5912 3.60518 10.6209 3.67557 10.6217 3.7492V6.74139ZM15.3564 7.6053C15.159 7.98732 14.86 8.30746 14.4923 8.53045V10.8297C14.4921 11.1084 14.5281 11.386 14.5993 11.6555L14.7981 12.4226L14.7548 13.6767C14.75 13.8262 14.7672 13.9756 14.8057 14.1201L14.9256 14.5662C14.9867 14.8005 14.9919 15.0458 14.9409 15.2825L14.9103 15.4253C14.9103 16.6589 13.2459 16.6589 13.2459 15.4253L13.2153 15.2825C13.1629 15.046 13.1682 14.8003 13.2306 14.5662L13.3504 14.1201C13.389 13.9756 13.4061 13.8262 13.4014 13.6767L13.3579 12.4226L13.5568 11.6555C13.6279 11.3859 13.6639 11.1083 13.6639 10.8295V8.53045C11.6374 7.25092 12.8304 4.5517 13.7098 3.78701C13.8126 3.70043 13.9424 3.65261 14.0768 3.65186C14.2113 3.65195 14.3414 3.69986 14.4439 3.78701C15.1498 4.39623 16.0496 6.23389 15.3564 7.6053Z" fill="white"/>
</svg>
