<svg width="16" height="16" viewBox="0 0 16 16" fill="none" xmlns="http://www.w3.org/2000/svg">
<mask id="mask0_2215_2302" style="mask-type:alpha" maskUnits="userSpaceOnUse" x="0" y="0" width="16" height="16">
<rect width="16" height="16" fill="#D9D9D9"/>
</mask>
<g mask="url(#mask0_2215_2302)">
<path d="M13.6663 4.80736V12.4612C13.6663 12.7979 13.5496 13.083 13.3163 13.3163C13.083 13.5496 12.7979 13.6663 12.4612 13.6663H3.53814C3.20139 13.6663 2.91634 13.5496 2.68301 13.3163C2.44967 13.083 2.33301 12.7979 2.33301 12.4612V3.53814C2.33301 3.20139 2.44967 2.91634 2.68301 2.68301C2.91634 2.44967 3.20139 2.33301 3.53814 2.33301H11.192L13.6663 4.80736ZM12.6663 5.23299L10.7663 3.33299H3.53814C3.47831 3.33299 3.42916 3.35222 3.39069 3.39069C3.35222 3.42916 3.33299 3.47831 3.33299 3.53814V12.4612C3.33299 12.521 3.35222 12.5702 3.39069 12.6086C3.42916 12.6471 3.47831 12.6663 3.53814 12.6663H12.4612C12.521 12.6663 12.5702 12.6471 12.6086 12.6086C12.6471 12.5702 12.6663 12.521 12.6663 12.4612V5.23299ZM7.99966 11.5124C8.46119 11.5124 8.85435 11.3501 9.17912 11.0253C9.50391 10.7005 9.66631 10.3073 9.66631 9.84581C9.66631 9.38428 9.50391 8.99111 9.17912 8.66633C8.85435 8.34155 8.46119 8.17916 7.99966 8.17916C7.53812 8.17916 7.14497 8.34155 6.82019 8.66633C6.4954 8.99111 6.33301 9.38428 6.33301 9.84581C6.33301 10.3073 6.4954 10.7005 6.82019 11.0253C7.14497 11.3501 7.53812 11.5124 7.99966 11.5124ZM4.25609 6.58939H9.73041V4.25609H4.25609V6.58939Z" fill="white"/>
</g>
</svg>
