<svg width="16" height="16" viewBox="0 0 16 16" fill="none" xmlns="http://www.w3.org/2000/svg">
<mask id="mask0_2417_4056" style="mask-type:alpha" maskUnits="userSpaceOnUse" x="0" y="0" width="16" height="16">
<rect width="16" height="16" fill="#D9D9D9"/>
</mask>
<g mask="url(#mask0_2417_4056)">
<path d="M13.6667 4.80736V12.4612C13.6667 12.7979 13.55 13.083 13.3167 13.3163C13.0833 13.5496 12.7983 13.6663 12.4615 13.6663H3.53851C3.20175 13.6663 2.91671 13.5496 2.68337 13.3163C2.45004 13.083 2.33337 12.7979 2.33337 12.4612V3.53814C2.33337 3.20139 2.45004 2.91634 2.68337 2.68301C2.91671 2.44967 3.20175 2.33301 3.53851 2.33301H11.1923L13.6667 4.80736ZM12.6667 5.23299L10.7667 3.33299H3.53851C3.47867 3.33299 3.42952 3.35222 3.39106 3.39069C3.35259 3.42916 3.33336 3.47831 3.33336 3.53814V12.4612C3.33336 12.521 3.35259 12.5702 3.39106 12.6086C3.42952 12.6471 3.47867 12.6663 3.53851 12.6663H12.4615C12.5214 12.6663 12.5705 12.6471 12.609 12.6086C12.6475 12.5702 12.6667 12.521 12.6667 12.4612V5.23299ZM8.00002 11.5124C8.46156 11.5124 8.85471 11.3501 9.17949 11.0253C9.50428 10.7005 9.66668 10.3073 9.66668 9.84581C9.66668 9.38428 9.50428 8.99111 9.17949 8.66633C8.85471 8.34155 8.46156 8.17916 8.00002 8.17916C7.53849 8.17916 7.14534 8.34155 6.82056 8.66633C6.49577 8.99111 6.33337 9.38428 6.33337 9.84581C6.33337 10.3073 6.49577 10.7005 6.82056 11.0253C7.14534 11.3501 7.53849 11.5124 8.00002 11.5124ZM4.25646 6.58939H9.73077V4.25609H4.25646V6.58939Z" fill="white"/>
</g>
</svg>
