<svg width="16" height="16" viewBox="0 0 16 16" fill="none" xmlns="http://www.w3.org/2000/svg">
<path d="M7 1.33301C10.1332 1.33318 12.666 3.86677 12.666 7C12.6659 8.33317 12.2 9.59996 11.4668 10.5332L14.4668 13.5332C14.7331 13.7999 14.7334 14.2002 14.4668 14.4668C14.3336 14.6 14.1333 14.6659 14 14.666C13.8668 14.666 13.6665 14.5999 13.5332 14.4668L10.5332 11.4668C9.5333 12.2 8.33316 12.6659 7 12.666C3.86677 12.666 1.33318 10.1332 1.33301 7C1.33301 3.86667 3.86667 1.33301 7 1.33301ZM6.99902 2.66602C4.59928 2.66619 2.66619 4.59928 2.66602 6.99902C2.66602 9.39891 4.59917 11.3328 6.99902 11.333C8.19902 11.333 9.26641 10.8664 10.0664 10.0664C10.8664 9.26641 11.333 8.19902 11.333 6.99902C11.3328 4.59917 9.39891 2.66602 6.99902 2.66602Z" fill="#373940"/>
<mask id="mask0_2348_2023" style="mask-type:luminance" maskUnits="userSpaceOnUse" x="1" y="1" width="14" height="14">
<path d="M7 1.33301C10.1332 1.33318 12.666 3.86677 12.666 7C12.6659 8.33317 12.2 9.59996 11.4668 10.5332L14.4668 13.5332C14.7331 13.7999 14.7334 14.2002 14.4668 14.4668C14.3336 14.6 14.1333 14.6659 14 14.666C13.8668 14.666 13.6665 14.5999 13.5332 14.4668L10.5332 11.4668C9.5333 12.2 8.33316 12.6659 7 12.666C3.86677 12.666 1.33318 10.1332 1.33301 7C1.33301 3.86667 3.86667 1.33301 7 1.33301ZM6.99902 2.66602C4.59928 2.66619 2.66619 4.59928 2.66602 6.99902C2.66602 9.39891 4.59917 11.3328 6.99902 11.333C8.19902 11.333 9.26641 10.8664 10.0664 10.0664C10.8664 9.26641 11.333 8.19902 11.333 6.99902C11.3328 4.59917 9.39891 2.66602 6.99902 2.66602Z" fill="white"/>
</mask>
<g mask="url(#mask0_2348_2023)">
<rect width="16" height="16" fill="#696A70"/>
</g>
</svg>
