<svg width="20" height="20" viewBox="0 0 20 20" fill="none" xmlns="http://www.w3.org/2000/svg">
<path d="M18.2563 7.39999C17.8916 7.34702 17.5435 7.21245 17.238 7.00632C16.9325 6.80019 16.6775 6.52779 16.4919 6.20942C16.3063 5.89106 16.1949 5.53492 16.166 5.16753C16.1371 4.80014 16.1914 4.43096 16.325 4.08749C16.4099 3.86295 16.4224 3.61746 16.3608 3.38545C16.2991 3.15343 16.1664 2.94653 15.9813 2.79374C15.1638 2.10728 14.2333 1.56802 13.2313 1.19999C13.0031 1.11523 12.754 1.10464 12.5194 1.16973C12.2849 1.23482 12.0769 1.37227 11.925 1.56249C11.6964 1.85478 11.4043 2.09117 11.0708 2.25375C10.7372 2.41633 10.371 2.50082 10 2.50082C9.62895 2.50082 9.26278 2.41633 8.92924 2.25375C8.59571 2.09117 8.30358 1.85478 8.075 1.56249C7.92314 1.37227 7.71512 1.23482 7.48057 1.16973C7.24603 1.10464 6.99692 1.11523 6.76875 1.19999C5.84354 1.53977 4.97849 2.02504 4.20625 2.63749C4.01159 2.7916 3.87138 3.00397 3.80615 3.24352C3.74092 3.48308 3.7541 3.73722 3.84375 3.96874C3.98797 4.3213 4.04756 4.70275 4.01773 5.08249C3.98791 5.46224 3.8695 5.82971 3.672 6.15542C3.4745 6.48114 3.20342 6.75603 2.8805 6.95806C2.55757 7.16008 2.19179 7.28362 1.8125 7.31874C1.56626 7.34507 1.33497 7.44977 1.15269 7.61741C0.97042 7.78506 0.846788 8.0068 0.8 8.24999C0.683624 8.82606 0.625 9.41229 0.625 9.99999C0.624145 10.492 0.663863 10.9833 0.74375 11.4687C0.783509 11.7197 0.904842 11.9506 1.08899 12.1257C1.27313 12.3008 1.50984 12.4104 1.7625 12.4375C2.15012 12.4739 2.52339 12.6026 2.85107 12.8128C3.17874 13.0231 3.45129 13.3087 3.64589 13.6459C3.8405 13.9831 3.95151 14.362 3.96962 14.7509C3.98773 15.1398 3.91242 15.5274 3.75 15.8812C3.64371 16.1114 3.61734 16.3705 3.67509 16.6173C3.73284 16.8641 3.87139 17.0846 4.06875 17.2437C4.88132 17.9177 5.80286 18.4483 6.79375 18.8125C6.92046 18.8564 7.05341 18.8796 7.1875 18.8812C7.37136 18.8808 7.55244 18.8364 7.71556 18.7515C7.87868 18.6667 8.01908 18.544 8.125 18.3937C8.34776 18.0692 8.64637 17.8039 8.9949 17.6209C9.34343 17.438 9.73136 17.3428 10.125 17.3437C10.5064 17.3442 10.8824 17.4338 11.2231 17.6052C11.5638 17.7766 11.8598 18.0252 12.0875 18.3312C12.2389 18.5348 12.4535 18.6826 12.6976 18.7515C12.9418 18.8205 13.2019 18.8068 13.4375 18.7125C14.3436 18.3478 15.1871 17.8438 15.9375 17.2187C16.126 17.0629 16.2602 16.8513 16.3209 16.6143C16.3815 16.3773 16.3655 16.1272 16.275 15.9C16.128 15.552 16.0639 15.1746 16.0878 14.7975C16.1116 14.4205 16.2228 14.0542 16.4125 13.7275C16.6022 13.4008 16.8653 13.1227 17.1809 12.9151C17.4966 12.7075 17.8561 12.5761 18.2313 12.5312C18.4745 12.4976 18.7007 12.3874 18.8771 12.2166C19.0536 12.0458 19.171 11.8233 19.2125 11.5812C19.3129 11.0599 19.3673 10.5308 19.375 9.99999C19.3751 9.44009 19.3228 8.8814 19.2188 8.33124C19.1766 8.09456 19.0608 7.87718 18.8881 7.71001C18.7153 7.54284 18.4942 7.43436 18.2563 7.39999ZM13.125 9.99999C13.125 10.6181 12.9417 11.2222 12.5983 11.7361C12.255 12.2501 11.7669 12.6506 11.1959 12.8871C10.6249 13.1236 9.99653 13.1855 9.39034 13.0649C8.78415 12.9444 8.22733 12.6467 7.79029 12.2097C7.35325 11.7727 7.05563 11.2158 6.93505 10.6097C6.81447 10.0035 6.87635 9.37513 7.11288 8.80411C7.3494 8.23309 7.74994 7.74503 8.26384 7.40165C8.77775 7.05827 9.38193 6.87499 10 6.87499C10.8288 6.87499 11.6237 7.20423 12.2097 7.79028C12.7958 8.37634 13.125 9.17119 13.125 9.99999Z" fill="#6D7382"/>
</svg>
