<svg width="20" height="20" viewBox="0 0 20 20" fill="none" xmlns="http://www.w3.org/2000/svg">
<path d="M16.0313 4.27969C16.5622 3.90089 17.2692 3.91629 17.9215 3.91582C19.0676 3.91582 20 3.0375 20 1.95793C20 0.87832 19.0676 0 17.9215 0C16.7754 0 15.843 0.87832 15.843 1.95793C15.8425 2.45958 15.7428 3.01381 15.3344 3.30514L14.7875 3.69533C14.1913 4.12061 13.3851 4.06802 12.6528 4.06475C12.6487 4.06473 12.6446 4.06472 12.6405 4.06473C11.9212 4.06414 11.1271 4.09364 10.5574 3.65455L9.86412 3.12021C9.53313 2.8651 9.43824 2.41746 9.43798 1.99957C9.43798 0.92 8.50556 0.0416797 7.35949 0.0416797C6.21343 0.0416797 5.28101 0.92 5.28101 1.99957C5.28101 2.47735 5.22374 2.99405 4.88437 3.33035L2.93188 5.26519C2.71018 5.48489 2.3906 5.56124 2.07848 5.56117C0.932419 5.56117 0 6.43949 0 7.51906C0 8.59863 0.932419 9.47695 2.07848 9.47695C3.22455 9.47695 4.15697 8.59863 4.15697 7.51906C4.15697 6.73802 4.09526 5.81522 4.65005 5.26546L5.45278 4.47C5.93243 3.99468 6.68423 3.95812 7.35949 3.9575C8.10416 3.95816 8.93078 3.9168 9.52059 4.37139L10.1171 4.83117C10.4679 5.10151 10.5618 5.57976 10.562 6.02262C10.562 7.10219 11.4944 7.98051 12.6405 7.98051C13.7865 7.98051 14.7189 7.10219 14.7189 6.02262C14.7191 5.59816 14.823 5.14167 15.1685 4.89516L16.0313 4.27969ZM17.9215 1.1732C18.3808 1.1732 18.7545 1.5252 18.7545 1.95793C18.7545 2.39059 18.3809 2.74258 17.9215 2.74258C17.4622 2.74258 17.0885 2.39059 17.0885 1.95793C17.0885 1.52523 17.4622 1.1732 17.9215 1.1732ZM2.07848 8.30375C1.61918 8.30375 1.24546 7.95176 1.24546 7.51906C1.24546 7.08637 1.61914 6.73438 2.07848 6.73438C2.53779 6.73438 2.9115 7.08637 2.9115 7.51906C2.9115 7.95176 2.53779 8.30375 2.07848 8.30375ZM7.35949 2.78426C6.90019 2.78426 6.52648 2.43227 6.52648 1.99957C6.52648 1.56687 6.90015 1.21492 7.35949 1.21492C7.81884 1.21492 8.19251 1.56691 8.19251 1.99957C8.19251 2.43223 7.8188 2.78426 7.35949 2.78426ZM12.6405 6.80723C12.1812 6.80723 11.8075 6.45523 11.8075 6.02258C11.8075 5.58992 12.1812 5.23789 12.6405 5.23789C13.0999 5.23789 13.4735 5.58988 13.4735 6.02258C13.4735 6.45527 13.0998 6.80723 12.6405 6.80723ZM17.8854 7.56383C16.7652 7.56383 15.8538 8.42234 15.8538 9.47754V17.9684C15.8538 19.0904 16.7634 20 17.8854 20C19.0074 20 19.917 19.0904 19.917 17.9684V9.47754C19.917 8.42234 19.0056 7.56383 17.8854 7.56383ZM18.6715 18.0406C18.6715 18.4748 18.3195 18.8268 17.8854 18.8268C17.4512 18.8268 17.0992 18.4748 17.0992 18.0406V9.47754C17.0992 9.06926 17.4519 8.73707 17.8853 8.73707C18.3188 8.73707 18.6714 9.06926 18.6714 9.47754L18.6715 18.0406ZM12.6405 12.3571C11.5203 12.3571 10.6089 13.2156 10.6089 14.2709V17.9684C10.6089 19.0904 11.5185 20 12.6405 20C13.7626 20 14.6721 19.0904 14.6721 17.9684V14.2709C14.6721 13.2156 13.7607 12.3571 12.6405 12.3571ZM13.4266 18.0406C13.4266 18.4748 13.0747 18.8268 12.6405 18.8268C12.2063 18.8268 11.8544 18.4748 11.8544 18.0406V14.2709C11.8544 13.8625 12.207 13.5304 12.6405 13.5304C13.0739 13.5304 13.4266 13.8625 13.4266 14.2709L13.4266 18.0406ZM7.32702 9.1282C6.2068 9.1282 5.2954 9.98668 5.2954 11.042V17.9684C5.2954 19.0904 6.20499 20 7.32702 20C8.44906 20 9.35865 19.0904 9.35865 17.9684V11.042C9.35865 9.98672 8.4473 9.1282 7.32702 9.1282ZM8.11318 18.8268C7.24484 18.8268 6.54091 18.1228 6.54091 17.2545V11.042C6.54091 10.6336 6.89356 10.3014 7.32702 10.3014C7.7605 10.3014 8.11314 10.6336 8.11314 11.042V18.8267C8.11314 18.8267 8.11316 18.8268 8.11318 18.8268ZM2.08217 14.1143C0.961944 14.1143 0.0505501 14.9728 0.0505501 16.028V17.9684C0.0505501 19.0904 0.96013 20 2.08215 20C3.20418 20 4.11376 19.0904 4.11376 17.9684V16.028C4.11376 14.9728 3.20236 14.1143 2.08217 14.1143ZM2.86825 18.0407C2.86825 18.4748 2.5163 18.8268 2.08215 18.8268C1.648 18.8268 1.29606 18.4748 1.29606 18.0407V16.028C1.29606 15.6197 1.6487 15.2875 2.08217 15.2875C2.5156 15.2875 2.86825 15.6197 2.86825 16.028V18.0407Z" fill="#4A739C"/>
</svg>
