<svg width="16" height="16" viewBox="0 0 16 16" fill="none" xmlns="http://www.w3.org/2000/svg">
<path d="M5.64675 5.01991C5.60029 4.97348 5.56343 4.91834 5.53828 4.85766C5.51313 4.79697 5.50019 4.73193 5.50019 4.66624C5.50019 4.60055 5.51313 4.53551 5.53828 4.47483C5.56343 4.41414 5.60029 4.35901 5.64675 4.31258L7.64675 2.31258C7.69318 2.26611 7.74832 2.22925 7.809 2.20411C7.86968 2.17896 7.93473 2.16602 8.00041 2.16602C8.0661 2.16602 8.13115 2.17896 8.19183 2.20411C8.25251 2.22925 8.30765 2.26611 8.35408 2.31258L10.3541 4.31258C10.4452 4.40683 10.4957 4.53311 10.4946 4.66421C10.4935 4.79531 10.441 4.92074 10.3483 5.01349C10.2557 5.10624 10.1303 5.15888 9.99918 5.16008C9.86808 5.16128 9.74176 5.11094 9.64741 5.01991L8.50075 3.87324V9.99924C8.50075 10.1318 8.44807 10.259 8.3543 10.3528C8.26053 10.4466 8.13336 10.4992 8.00075 10.4992C7.86814 10.4992 7.74096 10.4466 7.64719 10.3528C7.55343 10.259 7.50075 10.1318 7.50075 9.99924V3.87391L6.35408 5.02058C6.30765 5.06704 6.25251 5.1039 6.19183 5.12904C6.13115 5.15419 6.0661 5.16714 6.00041 5.16714C5.93473 5.16714 5.86968 5.15419 5.809 5.12904C5.74832 5.1039 5.69318 5.06704 5.64675 5.02058V5.01991ZM13.3334 9.49991C13.2008 9.49991 13.0736 9.55259 12.9799 9.64636C12.8861 9.74012 12.8334 9.8673 12.8334 9.99991V11.9999C12.8334 12.4592 12.4594 12.8332 12.0001 12.8332H4.00008C3.54075 12.8332 3.16675 12.4592 3.16675 11.9999V9.99991C3.16675 9.8673 3.11407 9.74012 3.0203 9.64636C2.92653 9.55259 2.79936 9.49991 2.66675 9.49991C2.53414 9.49991 2.40696 9.55259 2.31319 9.64636C2.21943 9.74012 2.16675 9.8673 2.16675 9.99991V11.9999C2.1671 12.486 2.36037 12.9521 2.70411 13.2959C3.04785 13.6396 3.51396 13.8329 4.00008 13.8332H12.0001C12.4862 13.8329 12.9523 13.6396 13.2961 13.2959C13.6398 12.9521 13.8331 12.486 13.8334 11.9999V9.99991C13.8334 9.8673 13.7807 9.74012 13.687 9.64636C13.5932 9.55259 13.466 9.49991 13.3334 9.49991Z" fill="white"/>
</svg>
