<svg width="56" height="56" viewBox="0 0 56 56" fill="none" xmlns="http://www.w3.org/2000/svg">
<rect width="56" height="56" rx="8" fill="#F2E6D6"/>
<g clip-path="url(#clip0_2075_1167)">
<path d="M28.147 27.4145C30.2646 27.4145 32.0983 26.6549 33.5966 25.1564C35.0949 23.6581 35.8544 21.8249 35.8544 19.707C35.8544 17.5898 35.0949 15.7564 33.5964 14.2576C32.0978 12.7595 30.2643 12 28.147 12C26.029 12 24.1957 12.7595 22.6975 14.2578C21.1992 15.7561 20.4394 17.5896 20.4394 19.707C20.4394 21.8249 21.1992 23.6584 22.6977 25.1567C24.1963 26.6548 26.0298 27.4145 28.147 27.4145ZM41.633 36.6063C41.5897 35.9828 41.5023 35.3026 41.3737 34.5844C41.2438 33.8607 41.0766 33.1767 40.8763 32.5514C40.6696 31.9052 40.3883 31.267 40.0407 30.6554C39.6798 30.0207 39.256 29.4679 38.7804 29.0131C38.2831 28.5373 37.6742 28.1547 36.9701 27.8756C36.2685 27.5981 35.4909 27.4575 34.6591 27.4575C34.3324 27.4575 34.0166 27.5915 33.4064 27.9887C32.9727 28.2712 32.5378 28.5516 32.1015 28.83C31.6823 29.0971 31.1144 29.3474 30.413 29.5739C29.7287 29.7954 29.0339 29.9077 28.3481 29.9077C27.6623 29.9077 26.9677 29.7954 26.2826 29.5739C25.582 29.3476 25.0142 29.0974 24.5954 28.8302C24.1098 28.5199 23.6704 28.2367 23.2893 27.9884C22.6799 27.5913 22.3637 27.4572 22.0371 27.4572C21.205 27.4572 20.4277 27.5981 19.7263 27.8759C19.0227 28.1545 18.4136 28.5371 17.9157 29.0134C17.4404 29.4684 17.0164 30.0209 16.656 30.6554C16.3086 31.267 16.0274 31.9049 15.8203 32.5517C15.6203 33.1769 15.4531 33.8607 15.3233 34.5844C15.1946 35.3017 15.1072 35.9821 15.0639 36.6071C15.0209 37.236 14.9996 37.8663 15 38.4967C15 40.1671 15.531 41.5194 16.5781 42.5167C17.6123 43.5009 18.9807 44.0001 20.6447 44.0001H36.0529C37.717 44.0001 39.0849 43.5011 40.1193 42.5168C41.1667 41.5201 41.6977 40.1676 41.6977 38.4965C41.6974 37.8517 41.6757 37.2157 41.633 36.6063Z" fill="#BF6A02"/>
</g>
<defs>
<clipPath id="clip0_2075_1167">
<rect width="32" height="32" fill="white" transform="translate(12 12)"/>
</clipPath>
</defs>
</svg>
