<svg width="32" height="32" viewBox="0 0 32 32" fill="none" xmlns="http://www.w3.org/2000/svg">
<rect width="32" height="32" rx="16" fill="#F2F5FA"/>
<path fill-rule="evenodd" clip-rule="evenodd" d="M16 14.6667C16.2626 14.6667 16.5227 14.6149 16.7654 14.5144C17.008 14.4139 17.2285 14.2666 17.4142 14.0809C17.5999 13.8952 17.7473 13.6747 17.8478 13.432C17.9483 13.1894 18 12.9293 18 12.6667C18 12.404 17.9483 12.144 17.8478 11.9013C17.7473 11.6586 17.5999 11.4382 17.4142 11.2525C17.2285 11.0667 17.008 10.9194 16.7654 10.8189C16.5227 10.7184 16.2626 10.6667 16 10.6667C15.4696 10.6667 14.9609 10.8774 14.5858 11.2525C14.2107 11.6275 14 12.1362 14 12.6667C14 13.1971 14.2107 13.7058 14.5858 14.0809C14.9609 14.456 15.4696 14.6667 16 14.6667ZM16 16C16.8841 16 17.7319 15.6488 18.357 15.0237C18.9821 14.3986 19.3333 13.5507 19.3333 12.6667C19.3333 11.7826 18.9821 10.9348 18.357 10.3096C17.7319 9.68452 16.8841 9.33333 16 9.33333C15.1159 9.33333 14.2681 9.68452 13.643 10.3096C13.0179 10.9348 12.6667 11.7826 12.6667 12.6667C12.6667 13.5507 13.0179 14.3986 13.643 15.0237C14.2681 15.6488 15.1159 16 16 16ZM14 18.6667C13.2928 18.6667 12.6145 18.9476 12.1144 19.4477C11.6143 19.9478 11.3333 20.6261 11.3333 21.3333V22C11.3333 22.1768 11.2631 22.3464 11.1381 22.4714C11.013 22.5964 10.8435 22.6667 10.6667 22.6667C10.4899 22.6667 10.3203 22.5964 10.1953 22.4714C10.0702 22.3464 10 22.1768 10 22V21.3333C10 20.2725 10.4214 19.2551 11.1716 18.5049C11.9217 17.7548 12.9391 17.3333 14 17.3333H18C19.0609 17.3333 20.0783 17.7548 20.8284 18.5049C21.5786 19.2551 22 20.2725 22 21.3333V22C22 22.1768 21.9298 22.3464 21.8047 22.4714C21.6797 22.5964 21.5101 22.6667 21.3333 22.6667C21.1565 22.6667 20.987 22.5964 20.8619 22.4714C20.7369 22.3464 20.6667 22.1768 20.6667 22V21.3333C20.6667 20.6261 20.3857 19.9478 19.8856 19.4477C19.3855 18.9476 18.7072 18.6667 18 18.6667H14Z" fill="#0043C5"/>
</svg>
