<svg width="20" height="20" viewBox="0 0 20 20" fill="none" xmlns="http://www.w3.org/2000/svg">
<path fill-rule="evenodd" clip-rule="evenodd" d="M19.1095 16.0163H0.878735C0.39836 16.0163 0 15.6179 0 15.1258V2.6595C0 2.17912 0.39836 1.78076 0.878735 1.78076H19.1095C19.6016 1.78076 20 2.17912 20 2.6595V15.1258C20 15.6179 19.6016 16.0163 19.1095 16.0163ZM10.5097 14.704H9.47862C9.37317 14.704 9.29115 14.6103 9.29115 14.5048C9.29115 14.3994 9.37317 14.3174 9.47862 14.3174H10.5097C10.6268 14.3174 10.7088 14.3994 10.7088 14.5048C10.7088 14.6103 10.6268 14.704 10.5097 14.704ZM18.8284 13.0051H1.17165V3.4445C1.17165 3.17502 1.39426 2.95241 1.66374 2.95241H18.3363C18.6057 2.95241 18.8284 3.17502 18.8284 3.4445V13.0051ZM8.44757 18.0198C8.34212 18.0198 8.24839 17.9378 8.24839 17.8323V16.4029H11.7516V17.8323C11.7516 17.9378 11.6579 18.0198 11.5524 18.0198H8.44757Z" fill="black"/>
<path fill-rule="evenodd" clip-rule="evenodd" d="M13.884 18.2191H6.10426C5.89337 18.2191 5.71762 18.0433 5.71762 17.8324C5.71762 17.6098 5.89337 17.4341 6.10426 17.4341H13.884C14.1066 17.4341 14.2824 17.6098 14.2824 17.8324C14.2824 18.0433 14.1066 18.2191 13.884 18.2191Z" fill="black"/>
</svg>
