<svg width="26" height="26" viewBox="0 0 26 26" fill="none" xmlns="http://www.w3.org/2000/svg">
<circle cx="13" cy="13" r="13" fill="#EBEBEB"/>
<mask id="mask0_2015_1793" style="mask-type:alpha" maskUnits="userSpaceOnUse" x="2" y="2" width="22" height="22">
<rect x="2" y="2" width="22" height="22" fill="#D9D9D9"/>
</mask>
<g mask="url(#mask0_2015_1793)">
<path d="M13.0019 16.2789C14.0407 16.2789 14.9229 15.9154 15.6486 15.1883C16.3743 14.4612 16.7371 13.5783 16.7371 12.5396C16.7371 11.5009 16.3736 10.6187 15.6465 9.89296C14.9194 9.16726 14.0365 8.80442 12.9978 8.80442C11.9591 8.80442 11.0769 9.16795 10.3512 9.89502C9.62546 10.6221 9.26262 11.505 9.26262 12.5437C9.26262 13.5825 9.62615 14.4647 10.3532 15.1904C11.0803 15.9161 11.9632 16.2789 13.0019 16.2789ZM12.9999 15.0167C12.3124 15.0167 11.728 14.776 11.2467 14.2948C10.7655 13.8135 10.5249 13.2292 10.5249 12.5417C10.5249 11.8542 10.7655 11.2698 11.2467 10.7885C11.728 10.3073 12.3124 10.0667 12.9999 10.0667C13.6874 10.0667 14.2717 10.3073 14.753 10.7885C15.2342 11.2698 15.4749 11.8542 15.4749 12.5417C15.4749 13.2292 15.2342 13.8135 14.753 14.2948C14.2717 14.776 13.6874 15.0167 12.9999 15.0167ZM13.001 18.9583C10.8931 18.9583 8.97249 18.3769 7.23907 17.2139C5.50566 16.0511 4.22935 14.4937 3.41016 12.5417C4.22935 10.5896 5.5052 9.03221 7.2377 7.86942C8.97035 6.70647 10.8907 6.125 12.9987 6.125C15.1066 6.125 17.0272 6.70647 18.7607 7.86942C20.4941 9.03221 21.7704 10.5896 22.5896 12.5417C21.7704 14.4937 20.4945 16.0511 18.762 17.2139C17.0294 18.3769 15.109 18.9583 13.001 18.9583ZM12.9999 17.5833C14.7263 17.5833 16.3113 17.1288 17.7551 16.2198C19.1988 15.3108 20.3026 14.0847 21.0665 12.5417C20.3026 10.9986 19.1988 9.77257 17.7551 8.86354C16.3113 7.95451 14.7263 7.5 12.9999 7.5C11.2735 7.5 9.68841 7.95451 8.24466 8.86354C6.80091 9.77257 5.69709 10.9986 4.9332 12.5417C5.69709 14.0847 6.80091 15.3108 8.24466 16.2198C9.68841 17.1288 11.2735 17.5833 12.9999 17.5833Z" fill="#0056AD"/>
</g>
</svg>
