<svg width="26" height="26" viewBox="0 0 26 26" fill="none" xmlns="http://www.w3.org/2000/svg">
<circle cx="13" cy="13" r="13" fill="white"/>
<mask id="mask0_2031_450" style="mask-type:alpha" maskUnits="userSpaceOnUse" x="2" y="2" width="22" height="22">
<rect x="2" y="2" width="22" height="22" fill="#D9D9D9"/>
</mask>
<g mask="url(#mask0_2031_450)">
<path d="M9.43217 20.2416C9.02548 20.2416 8.67813 20.0977 8.39015 19.8098C8.10232 19.5219 7.9584 19.1745 7.9584 18.7678V8.04993H6.8584V6.85826H10.8001V5.86414H15.2001V6.85826H19.1417V8.04993H18.0417V18.758C18.0417 19.1818 17.8993 19.535 17.6143 19.8176C17.3294 20.1003 16.9806 20.2416 16.568 20.2416H9.43217ZM16.8501 8.04993H9.15007V18.7678C9.15007 18.8502 9.1765 18.9178 9.22936 18.9706C9.28222 19.0235 9.34982 19.0499 9.43217 19.0499H16.568C16.6385 19.0499 16.7032 19.0205 16.7618 18.9617C16.8207 18.903 16.8501 18.8384 16.8501 18.7678V8.04993ZM11.1704 17.3999H12.3618V9.69993H11.1704V17.3999ZM13.6383 17.3999H14.8297V9.69993H13.6383V17.3999Z" fill="#444444"/>
</g>
</svg>
