<svg width="16" height="16" viewBox="0 0 16 16" fill="none" xmlns="http://www.w3.org/2000/svg">
<path fill-rule="evenodd" clip-rule="evenodd" d="M3 11.5V13C3 13.1326 3.05268 13.2598 3.14645 13.3536C3.24021 13.4473 3.36739 13.5 3.5 13.5H12.5C12.6326 13.5 12.7598 13.4473 12.8536 13.3536C12.9473 13.2598 13 13.1326 13 13V11.5C13 11.3674 12.9473 11.2402 12.8536 11.1464C12.7598 11.0527 12.6326 11 12.5 11C12.3674 11 12.2402 11.0527 12.1464 11.1464C12.0527 11.2402 12 11.3674 12 11.5V12.5H4V11.5C4 11.3674 3.94732 11.2402 3.85355 11.1464C3.75979 11.0527 3.63261 11 3.5 11C3.36739 11 3.24021 11.0527 3.14645 11.1464C3.05268 11.2402 3 11.3674 3 11.5Z" fill="#3C7EFF"/>
<path fill-rule="evenodd" clip-rule="evenodd" d="M9.74996 8V3.5C9.74996 3.36739 9.69728 3.24021 9.60351 3.14645C9.50974 3.05268 9.38257 3 9.24996 3H6.74996C6.61735 3 6.49017 3.05268 6.39641 3.14645C6.30264 3.24021 6.24996 3.36739 6.24996 3.5V8H4.99996C4.9013 8.00049 4.80497 8.03011 4.72308 8.08513C4.64118 8.14015 4.57735 8.21813 4.5396 8.30928C4.50184 8.40044 4.49184 8.50071 4.51085 8.59753C4.52986 8.69434 4.57704 8.78339 4.64646 8.8535L7.64646 11.8535C7.69285 11.9 7.74795 11.9368 7.80861 11.962C7.86927 11.9872 7.93429 12.0001 7.99996 12.0001C8.06563 12.0001 8.13065 11.9872 8.19131 11.962C8.25196 11.9368 8.30707 11.9 8.35346 11.8535L11.3535 8.8535C11.4234 8.78357 11.471 8.69449 11.4903 8.59752C11.5095 8.50054 11.4996 8.40002 11.4618 8.30867C11.424 8.21732 11.3599 8.13924 11.2777 8.0843C11.1955 8.02936 11.0988 8.00002 11 8H9.74996Z" fill="#3C7EFF"/>
</svg>
