<svg width="26" height="26" viewBox="0 0 26 26" fill="none" xmlns="http://www.w3.org/2000/svg">
<circle cx="13" cy="13" r="13" fill="white"/>
<mask id="mask0_2031_457" style="mask-type:alpha" maskUnits="userSpaceOnUse" x="2" y="2" width="22" height="22">
<rect x="2" y="2" width="22" height="22" fill="#D9D9D9"/>
</mask>
<g mask="url(#mask0_2031_457)">
</g>
<g clip-path="url(#clip0_2031_457)">
<path d="M18.3623 12.5815C17.9821 12.5815 17.6748 12.8895 17.6748 13.2689V18.769C17.6748 19.1478 17.3668 19.4564 16.9873 19.4564H7.3623C6.98277 19.4564 6.67485 19.1478 6.67485 18.769V9.14392C6.67485 8.76513 6.98277 8.45646 7.3623 8.45646H12.8623C13.2425 8.45646 13.5498 8.14844 13.5498 7.76901C13.5498 7.38947 13.2425 7.08142 12.8623 7.08142H7.3623C6.22519 7.08142 5.2998 8.00681 5.2998 9.14392V18.769C5.2998 19.9061 6.22519 20.8315 7.3623 20.8315H16.9873C18.1245 20.8315 19.0498 19.9061 19.0498 18.769V13.2689C19.0498 12.8888 18.7424 12.5815 18.3623 12.5815Z" fill="#444444"/>
<path d="M11.7456 11.9552C11.6978 12.0032 11.6651 12.0641 11.6514 12.1304L11.1654 14.5615C11.1427 14.6742 11.1785 14.7904 11.2595 14.8722C11.2915 14.9041 11.3295 14.9294 11.3713 14.9466C11.4131 14.9638 11.4578 14.9726 11.503 14.9726C11.5249 14.9726 11.5477 14.9705 11.5703 14.9658L14.0007 14.4797C14.068 14.4659 14.1292 14.4336 14.1767 14.3854L19.6162 8.9459L17.1858 6.5157L11.7456 11.9552ZM21.2963 4.83479C20.6261 4.16445 19.5357 4.16445 18.866 4.83479L17.9146 5.78621L20.3449 8.21655L21.2963 7.26499C21.6209 6.94121 21.7996 6.50941 21.7996 6.05018C21.7996 5.59095 21.6209 5.15918 21.2963 4.83479Z" fill="#444444"/>
</g>
<defs>
<clipPath id="clip0_2031_457">
<rect width="16.5" height="16.5" fill="white" transform="translate(5.2998 4.2998)"/>
</clipPath>
</defs>
</svg>
