<svg width="16" height="16" viewBox="0 0 16 16" fill="none" xmlns="http://www.w3.org/2000/svg">
<mask id="mask0_2015_2819" style="mask-type:alpha" maskUnits="userSpaceOnUse" x="0" y="0" width="16" height="16">
<rect width="16" height="16" fill="#D9D9D9"/>
</mask>
<g mask="url(#mask0_2015_2819)">
<path d="M13.6666 4.80772V12.4615C13.6666 12.7983 13.5499 13.0833 13.3166 13.3167C13.0832 13.55 12.7982 13.6667 12.4614 13.6667H3.53839C3.20163 13.6667 2.91659 13.55 2.68325 13.3167C2.44992 13.0833 2.33325 12.7983 2.33325 12.4615V3.53851C2.33325 3.20175 2.44992 2.91671 2.68325 2.68337C2.91659 2.45004 3.20163 2.33337 3.53839 2.33337H11.1922L13.6666 4.80772ZM12.6666 5.23336L10.7666 3.33336H3.53839C3.47855 3.33336 3.4294 3.35259 3.39094 3.39106C3.35247 3.42952 3.33324 3.47867 3.33324 3.53851V12.4615C3.33324 12.5214 3.35247 12.5705 3.39094 12.609C3.4294 12.6475 3.47855 12.6667 3.53839 12.6667H12.4614C12.5213 12.6667 12.5704 12.6475 12.6089 12.609C12.6473 12.5705 12.6666 12.5214 12.6666 12.4615V5.23336ZM7.9999 11.5128C8.46144 11.5128 8.85459 11.3504 9.17937 11.0256C9.50416 10.7009 9.66655 10.3077 9.66655 9.84618C9.66655 9.38464 9.50416 8.99148 9.17937 8.66669C8.85459 8.34191 8.46144 8.17952 7.9999 8.17952C7.53837 8.17952 7.14521 8.34191 6.82044 8.66669C6.49565 8.99148 6.33325 9.38464 6.33325 9.84618C6.33325 10.3077 6.49565 10.7009 6.82044 11.0256C7.14521 11.3504 7.53837 11.5128 7.9999 11.5128ZM4.25634 6.58976H9.73065V4.25646H4.25634V6.58976Z" fill="white"/>
</g>
</svg>
