<svg width="24" height="24" viewBox="0 0 24 24" fill="none" xmlns="http://www.w3.org/2000/svg">
<mask id="mask0_2176_849" style="mask-type:alpha" maskUnits="userSpaceOnUse" x="0" y="0" width="24" height="24">
<rect width="24" height="24" fill="#D9D9D9"/>
</mask>
<g mask="url(#mask0_2176_849)">
<path d="M15.773 12.973L14.65 11.85C14.8 11.0218 14.5637 10.2773 13.9412 9.61625C13.3189 8.95542 12.5551 8.7 11.65 8.85L10.527 7.727C10.7526 7.62567 10.984 7.54967 11.2212 7.499C11.4584 7.44834 11.718 7.423 12 7.423C13.1346 7.423 14.0978 7.81884 14.8895 8.6105C15.6811 9.40217 16.077 10.3653 16.077 11.5C16.077 11.782 16.0516 12.0448 16.001 12.2885C15.9503 12.532 15.8743 12.7602 15.773 12.973ZM18.9537 16.0845L17.85 15.05C18.4833 14.5667 19.0458 14.0375 19.5375 13.4625C20.0291 12.8875 20.45 12.2333 20.8 11.5C19.9666 9.81667 18.7708 8.47917 17.2125 7.4875C15.6541 6.49584 13.9166 6 12 6C11.5166 6 11.0416 6.03334 10.575 6.1C10.1083 6.16667 9.64995 6.26667 9.19995 6.4L8.0347 5.23475C8.6667 4.98342 9.3122 4.79817 9.9712 4.679C10.6302 4.55967 11.3065 4.5 12 4.5C14.3435 4.5 16.4569 5.14617 18.3402 6.4385C20.2235 7.73084 21.5973 9.418 22.4615 11.5C22.091 12.3935 21.6125 13.2275 21.026 14.002C20.4393 14.7763 19.7485 15.4705 18.9537 16.0845ZM19.7615 21.8693L15.7155 17.8538C15.2026 18.0436 14.6343 18.1988 14.0105 18.3193C13.3868 18.4398 12.7166 18.5 12 18.5C9.64995 18.5 7.53654 17.8538 5.6597 16.5615C3.7827 15.2692 2.40895 13.582 1.53845 11.5C1.90762 10.6167 2.38454 9.79267 2.9692 9.028C3.55387 8.26317 4.19745 7.6 4.89995 7.0385L2.1307 4.2385L3.1847 3.18475L20.8152 20.8153L19.7615 21.8693ZM5.95395 8.09225C5.42562 8.51275 4.91179 9.01825 4.41245 9.60875C3.91312 10.1991 3.50895 10.8295 3.19995 11.5C4.03329 13.1833 5.22912 14.5208 6.78745 15.5125C8.34579 16.5042 10.0833 17 12 17C12.4551 17 12.9084 16.9615 13.3597 16.8845C13.8109 16.8077 14.1935 16.7283 14.5077 16.6463L13.2422 15.35C13.0717 15.4192 12.8743 15.4743 12.65 15.5153C12.4256 15.5564 12.209 15.577 12 15.577C10.8653 15.577 9.90212 15.1812 9.11045 14.3895C8.31879 13.5978 7.92295 12.6347 7.92295 11.5C7.92295 11.2975 7.94354 11.0857 7.9847 10.8645C8.0257 10.6433 8.08079 10.4411 8.14995 10.2578L5.95395 8.09225Z" fill="#1C1B1F"/>
</g>
</svg>
